<?xml version="1.0" encoding="utf-8"?>
<!-- Generator: Adobe Illustrator 15.0.0, SVG Export Plug-In . SVG Version: 6.00 Build 0)  -->
<!DOCTYPE svg PUBLIC "-//W3C//DTD SVG 1.1//EN" "http://www.w3.org/Graphics/SVG/1.1/DTD/svg11.dtd">
<svg version="1.1" id="Layer_1" xmlns="http://www.w3.org/2000/svg" xmlns:xlink="http://www.w3.org/1999/xlink" x="0px" y="0px"
	 width="35px" height="35px" viewBox="0 0 35 35" enable-background="new 0 0 35 35" xml:space="preserve">
<path fill-rule="evenodd" clip-rule="evenodd" fill="#05ABD7" d="M33.729,14.733c-0.089-0.531-0.338-0.785-0.524-1.257
	c-0.435-1.111-0.683-1.996-1.099-2.984c0.505-0.319,0.931-1.055,0.68-1.833c-0.07-0.22-0.213-0.336-0.209-0.523
	c-0.052,0-0.104,0-0.157,0c-0.209-0.841-1.684-0.582-2.199-0.262c-0.387-0.38-0.87-0.667-1.309-0.995
	c-1.007-0.754-1.978-1.642-2.932-2.461c-0.274-0.235-0.589-0.372-0.837-0.628c0.042-0.042,0.05-0.166,0.053-0.367
	c0.011-0.762-0.409-0.76-0.629-1.204c-0.853-0.125-1.415,0.028-1.728,0.732c-2.879-0.122-5.76-0.244-8.639-0.366
	c-0.074-0.798-1.013-1.339-1.833-1.1c-0.256,0.075-0.443,0.308-0.628,0.314c-0.063,0.213-0.169,0.228-0.262,0.367
	c-0.201,0.303-0.113,0.762-0.104,1.151c-1.08,0.521-2.089,1.172-3.089,1.78C7.877,5.345,7.497,5.438,7.077,5.675
	C6.541,5.978,6,6.522,5.401,6.669C5.153,6.736,4.545,6.188,4.092,6.513C3.551,6.611,3.579,7.061,3.254,7.35
	C3.339,7.824,3.25,8.118,3.568,8.397c-0.334,0.397-1.08,1.607-1.361,2.199c-1.29-0.095-1.102,0.158-1.885,0.577
	c-0.087,0.279-0.174,0.559-0.262,0.837c-0.078,0.755,0.578,1.582,1.414,1.623c0.118,0.946,0.202,2.101,0.419,3.038
	c0.098,0.424-0.042,0.982,0.157,1.309c-0.007,0.641-0.417,0.528-0.576,0.995C1.3,19.21,1.392,19.657,1.422,19.969
	c0.214,0.221,0.796,1.058,1.361,0.681c0.372-0.019,0.532-0.184,0.734-0.366c0.187-0.023,0.337,0.135,0.628,0.262
	c0.264,0.115,0.571,0.114,0.942,0.262c0.708,0.282,1.615,0.847,2.304,0.89c-0.295,0.846,0.732,1.932,1.623,1.728
	c0.314-0.072,0.542-0.232,0.786-0.366c0.246,0.362,1.42,1.166,1.78,1.362c-0.244,1.877,1.853,2.32,2.409,0.523
	c1.234-0.256,2.555-0.495,3.613-0.89c0.223,0.374,0.522,0.719,0.942,0.89c0.173,0.07,0.718-0.03,0.838,0.105
	c0.187,0.211,0.443,1.37,0.576,1.728c0.371,1,0.779,2.22,1.151,2.88c0,0.105,0,0.209,0,0.314c0.035,0,0.07,0,0.105,0
	c0.298,0.507,0.179,0.977,0.524,1.414c-0.204,0.292-0.449,0.508-0.524,0.942c-0.119,0.69,0.987,1.682,1.623,1.204
	c0.468-0.071,1.229-0.971,0.733-1.57c0.147-0.313,0.537-0.459,0.733-0.733c0.239,0.061,0.494,0.24,0.838,0.157
	c0.662-0.16,1.375-0.901,0.942-1.78c-0.145-0.293-0.469-0.451-0.733-0.628c-0.066,0.04-0.051,0.004-0.209,0
	c-0.065-0.532-0.106-1.143-0.262-1.623c0.5-0.243,0.795-0.71,0.838-1.257c1.009-0.093,2.027-0.562,3.09-0.786
	c0.18,0.208,0.825,0.854,1.309,0.524c0.516-0.024,0.713-0.372,0.942-0.681c0.279-0.556-0.187-1.195-0.471-1.518
	c-0.092-0.096,0.322-1.33,0.367-1.728c0.454-0.146,0.913-0.227,1.151-0.576c0.292-0.427,0.294-1.376-0.105-1.675
	c0.07-0.508,0.521-0.915,0.785-1.257c-0.068-0.135,0.557-0.985,0.681-1.204c1.178-0.125,1.477-0.302,1.571-1.519
	C34.575,15.17,34.671,14.83,33.729,14.733z M30.116,10.282c-0.065,0.383-0.524,1.011-0.786,1.309
	c-0.026,0.031-0.076,0.337-0.157,0.471c-0.163,0.27-0.363,0.562-0.576,0.786c-0.133,0.14-0.433,1.011-0.681,1.309
	c-0.05,0.049-0.552-0.046-0.733-0.104c-0.525-0.168-1.149-0.403-1.78-0.419c-0.125-0.386,0.017-0.791-0.209-0.995
	c0.397-0.387,1.051-0.521,1.57-0.785c0.587-0.299,1.18-0.679,1.675-0.942c0.586-0.313,1.012-0.358,1.519-0.733
	C30.011,10.212,30.063,10.248,30.116,10.282z M32,16.565c-0.13,0.094-0.468,0.195-0.628,0.21c-0.53,0.448-1.31,0.702-1.885,1.1
	c-0.119,0.082-0.294,0.022-0.419,0.104c-0.576,0.378-1.439,0.755-1.833,1.047c-0.222,0.166-1.516,0.684-1.519,0.838
	c-0.035,0-0.07,0-0.104,0c-0.048-0.057,0.004-0.005-0.053-0.053c0.092-0.429,0.441-0.715,0.629-1.047
	c0.024-0.042-0.067-0.104,0-0.209c0.07-0.111,0.267-0.246,0.313-0.314c0.018-0.104,0.035-0.209,0.053-0.314
	c0.07-0.052,0.139-0.105,0.209-0.157c0.152-0.276,0.183-0.472,0.261-0.681c0.043-0.114,0.254-0.257,0.315-0.366
	c0.122-0.219,0.128-0.417,0.262-0.629c0.199-0.318,0.512-0.651,0.627-1.047c1.122,0.093,2.35,0.485,3.351,0.785
	c0.349,0.104,0.824,0.042,0.995,0.314c0.017,0,0.035,0,0.052,0c-0.191,0.196-0.418,0.173-0.68,0.314
	C31.966,16.496,31.983,16.531,32,16.565z M25.298,18.765c0,0.018,0,0.035,0,0.053c-0.099,0.006-0.326,0.353-0.366,0.576
	c-0.123-0.017-0.245-0.035-0.367-0.052c-0.177-0.848-0.439-2.164-0.681-2.985c-0.064-0.218-0.044-0.47-0.157-0.627
	c0.514-0.476,1.288-0.6,1.414-1.466c0.593,0.231,1.677,0.509,2.409,0.576c-0.515,1.006-1.062,1.961-1.729,2.88
	c-0.099,0.136-0.366,0.785-0.366,0.785c0,0.018,0,0.035,0,0.052C25.397,18.562,25.183,18.65,25.298,18.765z M15.507,17.194
	c0.188-0.363,1.023-0.425,1.257-0.577c0.901-0.583,2.04-1.008,3.09-1.518c0.262-0.127,0.568-0.134,0.837-0.366
	c0.052,0,0.105,0,0.157,0c0.107,0.318,0.51,0.688,0.837,0.785c-0.471,1.239-0.942,2.479-1.413,3.718
	c-0.934-0.386-1.813-0.454-2.723-0.786c-0.624-0.228-1.417-0.503-1.99-0.628C15.566,17.619,15.588,17.315,15.507,17.194z
	 M13.779,14.733c-0.142-0.58,0.031-1.943-0.157-2.618c0.688,0.151,1.453,0.35,2.199,0.366c0.048,0.057-0.004,0.005,0.052,0.053
	c-0.09,0.35-0.346,0.763-0.576,0.995c0.125,0.147-0.243,0.447-0.314,0.576c-0.291,0.527-0.549,1.042-0.785,1.57
	c-0.146-0.016-0.275-0.037-0.367-0.104C13.732,15.467,13.854,15.039,13.779,14.733z M23.047,8.607
	c-0.018,0.276-0.128,1.983-0.261,2.199c-0.132,0.204-0.694,0.174-0.891,0.314c-0.382-0.049-1.087-1.337-1.099-1.466
	c-0.212-0.247-0.345-0.315-0.472-0.576c0.011-0.201,0.419-0.499,0.366-0.786c0.627,0.151,1.409,0.176,2.304,0.262
	c0,0.018,0,0.035,0,0.052C23.013,8.607,23.029,8.607,23.047,8.607z M21.162,11.591c-0.197,0.146-0.529,0.531-0.576,0.943
	c-1.124,0.18-2.567-0.659-3.56-0.524c0.27-0.994,1.036-1.56,1.256-2.46c0.468,0.025,1.027,0.193,1.362-0.105
	c0.213,0.15,0.219,0.355,0.367,0.576c0.052,0.018,0.104,0.035,0.157,0.053C20.556,10.507,20.885,11.223,21.162,11.591z
	 M17.078,10.439c-0.252,0.459-0.585,0.892-0.786,1.414c-0.872-0.064-1.884-0.524-2.67-0.419c-0.042-0.227,0.017-0.853-0.104-1.047
	c-0.007-0.645,0.261-0.497,0.681-0.681c0.543-0.24,1.543-0.467,2.199-0.785c0.261-0.127,0.598-0.071,0.785-0.262
	c0.133,0.046,0.313,0.385,0.523,0.524C17.486,9.454,17.313,10.012,17.078,10.439z M15.821,14.314
	c0.258-0.424,0.475-1.255,0.838-1.624c0.145-0.088,0.737,0.105,0.942,0.157c0.445,0.113,0.749,0.049,1.204,0.157
	c0.49,0.117,0.999,0.262,1.571,0.262c0,0.018,0,0.035,0,0.053c0.017,0,0.035,0,0.052,0c0.017,0.262,0.035,0.523,0.052,0.785
	c-0.593,0.095-1.125,0.508-1.623,0.733c-0.734,0.332-1.578,0.619-2.199,0.995c-0.414,0.25-1.043,0.286-1.362,0.628
	c-0.125-0.039-0.271-0.295-0.471-0.419C14.975,15.458,15.497,14.847,15.821,14.314z M20.167,21.488
	c0.213-0.457,0.433-0.923,0.523-1.361c0.418,0.056,1.834,0.414,2.147,0.627c0.052,0.018,0.105,0.035,0.157,0.053
	c0.005,0.149,0.021,0.224,0.052,0.314c-0.641,0.31-2.032,0.781-2.513,1.204c-0.162-0.023-0.325-0.201-0.472-0.367
	C20.036,21.934,20.108,21.614,20.167,21.488z M21.005,19.445c0.119-0.686,0.575-1.293,0.733-1.885
	c0.053-0.196,0.064-0.457,0.157-0.68c0.136-0.326,0.373-0.683,0.419-1.099c0.175,0.061,0.48,0.058,0.733,0.052
	c0.083,0.725,0.237,1.387,0.471,1.99c0.222,0.57,0.036,1.188,0.314,1.519c-0.055,0.269-0.396,0.519-0.576,0.68
	C22.985,20.156,21.396,19.53,21.005,19.445z M24.199,4.576c0.151-0.061,0.32-0.095,0.419-0.21c0.612,0.307,1.04,0.87,1.571,1.257
	c0.91,0.664,1.592,1.24,2.46,1.885c0.367,0.272,0.672,0.682,1.1,0.89c0,0.035,0,0.07,0,0.105c-0.043,0.054-0.02,0.013-0.053,0.104
	c-2.034-0.101-3.703-0.644-5.812-0.628c0-0.018,0-0.035,0-0.052c-0.018,0-0.035,0-0.053,0C23.966,6.78,24.203,5.831,24.199,4.576z
	 M23.78,8.659c1.955,0.227,3.91,0.454,5.864,0.681c0,0.07,0,0.14,0,0.21c-1.543,0.73-3.328,1.777-4.765,2.409
	c-0.237-0.481-0.962-0.954-1.361-0.943c0-0.469,0.073-1.958,0.262-2.251C23.78,8.729,23.78,8.694,23.78,8.659z M23.256,4.418
	c0.07,0,0.14,0,0.209,0c0,0.018,0,0.035,0,0.052c0.017,0,0.035,0,0.052,0c-0.036,0.798-0.127,1.649-0.313,2.461
	c-0.075,0.326,0.04,0.656-0.105,0.891c0,0-0.423,0.045-0.576,0c-0.436-0.131-1.248-0.241-1.676-0.21
	c-0.075-0.223-0.068-0.567-0.262-0.681c0.069-0.536,0.729-0.689,1.047-0.995c0.227-0.217,0.409-0.556,0.681-0.576
	c0.119-0.134,0.182-0.301,0.313-0.419C22.842,4.75,23.092,4.661,23.256,4.418z M14.198,3.318c1.164-0.002,2.61-0.055,3.56,0.157
	c0.402,0,0.803,0,1.205,0c0.584,0.143,1.373,0.062,1.78,0.105c0.468,0.05,1.729-0.085,2.043,0.104
	c0.053,0.041,0.031,0.064,0.104,0.157c-0.632,0.408-1.177,1.018-1.728,1.519c-0.315,0.287-0.773,0.463-0.995,0.838
	c-0.32-0.092-0.443-0.278-0.733-0.367c-0.82-0.253-1.425,0.255-1.833,0.471C17.343,5.91,16.9,5.771,16.554,5.465
	c-0.571-0.503-1.17-1.063-1.78-1.518c-0.214-0.16-0.464-0.264-0.628-0.472C14.074,3.416,14.162,3.449,14.198,3.318z M13.256,4.366
	c0.085-0.153,0.259-0.182,0.366-0.314c0.57,0.201,1.171,0.939,1.623,1.309c0.627,0.514,1.378,0.887,1.938,1.466l-0.209,1.152
	c-0.14,0.129-0.631,0.25-0.995,0.209c0.039,0.046,0.066,0.059,0.104,0.104c-0.627,0.258-1.374,0.508-1.99,0.733
	c-0.284,0.104-0.311-0.029-0.523,0.157c-0.035,0-0.07,0-0.105,0c0.085-0.353-0.003-1.42-0.105-1.885
	c-0.017-0.611-0.035-1.222-0.052-1.833C13.258,5.236,13.203,4.507,13.256,4.366z M12.941,13.058c0.023,0.25,0.057,1.768,0.158,1.937
	c0,0.21,0,0.419,0,0.628c-0.054,0.095-0.258,0.055-0.367,0.105c-0.311,0.144-0.525,0.516-0.838,0.627
	c-0.155,0.073-0.435-0.163-0.576-0.262c-0.199,0.1-1.513-0.692-1.885-0.785c0.035-0.803,0.07-1.606,0.104-2.409
	c0.696-0.092,1.311-0.573,1.466-1.205c0.279,0.01,1.521,0.15,1.78,0.314C13.046,12.168,12.907,12.676,12.941,13.058z M12.889,10.701
	c0,0.192,0,0.384,0,0.576c-0.643-0.134-1.17-0.251-1.728-0.314c0-0.087,0-0.175,0-0.262c0.378-0.054,1.294-0.329,1.571-0.523
	C12.894,10.252,12.759,10.483,12.889,10.701z M12.47,4.47c0.221,0.343,0.054,0.906,0.104,1.466c0.054,0.593,0.103,1.341,0.157,1.937
	c0.04,0.433-0.048,1.115,0.052,1.31c-0.01,0.136-0.023,0.178-0.052,0.262c-0.236,0.046-1.389,0.362-1.623,0.576
	c-0.442-0.042-0.422-0.44-0.786-0.576c0.09-0.352,0.285-0.685,0.471-0.942c0.049-0.068,0.131-0.662,0.262-0.838
	c0.375-0.505,0.654-1.625,0.995-2.304C12.183,5.097,12.394,4.813,12.47,4.47z M3.254,10.178c0.158-0.241,0.309-0.322,0.472-0.576
	c0.123-0.192,0.222-0.69,0.419-0.786c0.109-0.052,0.149,0.053,0.209,0.053c0.29-0.001,0.677-0.112,0.837-0.262
	c0.836,0.256,1.614,1.255,2.252,1.519c-0.035,0.262-0.07,0.523-0.105,0.786c-1.064,0.157-2.129,0.313-3.193,0.471
	C3.86,11.447,3.464,11.4,3.254,11.539c-0.216-0.054-0.412-0.375-0.472-0.576C3.036,10.733,3.118,10.387,3.254,10.178z M7.6,21.017
	c0,0-0.773-0.155-0.995-0.314c-0.619-0.448-1.997-0.593-2.722-1.1c-0.176-0.116-0.152-0.604-0.262-0.786
	c-0.223-0.365-0.51-0.313-0.785-0.576c-0.201-0.271-0.085-0.826-0.157-1.205c-0.227-1.185-0.286-2.316-0.472-3.508
	c0.465,0.324,0.767,1.157,1.205,1.676c1.143,1.354,2.146,3.008,3.089,4.084c0.416,0.475,0.637,1.203,1.152,1.571
	C7.632,20.967,7.64,20.96,7.6,21.017z M8.491,20.44c-0.041,0.036-0.117,0.069-0.157,0.105c-0.272-0.12-0.359-0.448-0.523-0.681
	c-0.396-0.562-1.202-1.773-1.624-2.095c0-0.07,0-0.14,0-0.21c-0.053,0-0.104,0-0.157,0c-0.145-0.601-0.923-1.248-1.257-1.728
	c-0.266-0.383-1.138-1.464-1.152-1.78c-0.25-0.232-0.562-0.554-0.785-0.942c0.017,0,0.035,0,0.052,0c0,0,1.142,0.416,1.414,0.576
	c0.91,0.536,1.891,0.83,2.879,1.309c0.463,0.225,0.975,0.606,1.519,0.734c0.005,1.157-0.019,2.027-0.158,2.984
	C8.474,19.195,8.742,20.032,8.491,20.44z M8.752,14.943c-0.58-0.092-0.796-0.38-1.361-0.628c-0.58-0.255-1.242-0.534-1.623-0.786
	c-0.22-0.145-0.502-0.09-0.733-0.209c-0.624-0.323-1.118-0.698-1.833-0.891c0-0.07,0-0.14,0-0.209
	c1.515-0.06,2.701-0.577,4.241-0.576c0.119,0.694,0.774,1.012,1.361,1.257C8.787,13.581,8.77,14.262,8.752,14.943z M8.542,9.131
	c-0.215,0.153-0.433,0.35-0.68,0.471c-0.66-0.691-1.48-0.906-2.147-1.571c-0.367-0.812,0.9-1.181,1.414-1.466
	c0.813-0.451,2.016-1.176,2.723-1.624c0.602-0.381,1.376-0.572,1.885-1.047c0.053,0.035,0.105,0.07,0.157,0.105
	c-0.046,0.323-0.204,0.533-0.367,0.733c-0.056,0.069-0.089,0.486-0.157,0.628c-0.258,0.542-0.549,1.249-0.89,1.728l-0.053,0.419
	C10.346,7.758,10.1,8.086,9.957,8.292c0.018,0.053,0.035,0.105,0.052,0.157C9.944,8.613,9.767,8.947,9.643,9.078
	C9.534,9.139,8.655,9.135,8.542,9.131z M9.695,20.65c-0.158-0.052-0.314-0.104-0.472-0.157c0.178-1.598-0.089-2.724,0.209-4.398
	c0.452,0.212,0.835,0.389,1.309,0.577c0.108,0.042,0.272,0.228,0.367,0.262c0.088,0.032,0.331,0.038,0.471,0.157
	c0.067,0.08-0.072,0.27-0.053,0.419c0.018,0.136,0.097,0.878,0.105,0.89c0.09,0.129,0.174,0.129,0.157,0.262
	c-0.056,0.144-0.157,0.224-0.262,0.313c0,0.001,0,0.105-0.052,0.052c0-0.017,0-0.035,0-0.052c-0.295,0.15-0.42,0.461-0.576,0.629
	C10.495,20.036,10.053,20.16,9.695,20.65z M15.873,23.687c-0.527,0.202-1.623,0.332-1.99,0.576
	c-0.176-0.088-0.221-0.262-0.366-0.366c-0.477-0.344-1.044-0.234-1.519,0c-0.439-0.596-1.347-0.817-1.78-1.414
	c0.69,0.056,1.551,0.138,2.094,0.261c0.134,0.031,0.496,0.165,0.628,0.157c0.463-0.026,1.18,0.091,1.676,0.209
	c0.261,0.017,0.523,0.035,0.785,0.052c0.491,0.125,1.154,0.248,1.728,0.262C16.812,23.654,16.167,23.575,15.873,23.687z
	 M17.549,22.744c-0.68,0.001-1.302-0.12-1.885-0.261c-0.245-0.018-0.489-0.035-0.734-0.053c-0.127-0.034-0.53-0.156-0.628-0.157
	c-0.675-0.004-1.845-0.187-2.408-0.315c-0.514-0.116-1.262-0.007-1.571-0.261c-0.072-0.123-0.054-0.315-0.209-0.471
	c0.604-0.644,1.613-1.217,2.095-1.938c0.573,0.125,1.779,0.618,2.409,0c0.369,0.155,0.578,0.564,0.838,0.838
	c0.481,0.506,1.004,0.991,1.518,1.465c0.162,0.15,0.437,0.59,0.733,0.785C17.665,22.533,17.608,22.616,17.549,22.744z
	 M19.382,21.697c-0.107,0.082-0.826-0.003-1.1,0.209c-0.448-0.16-0.692-0.723-0.995-1.047c-0.614-0.659-1.546-1.293-2.042-2.042
	c0.005-0.076,0.046-0.118,0.104-0.314c0.97,0.366,2.432,0.773,3.09,0.89c0.61,0.109,1.016,0.426,1.571,0.472
	c-0.104,0.518-0.316,1.043-0.576,1.414C19.417,21.303,19.489,21.615,19.382,21.697z M23.832,30.546
	c-0.081,0.402-0.48,0.496-0.681,0.786c-0.302-0.046-0.428-0.153-0.785-0.157c-0.066-0.357-0.287-0.719-0.419-1.099
	c-0.043-0.125,0.042-0.214,0-0.314c-0.3-0.729-0.573-1.324-0.89-2.094c-0.303-0.735-0.499-1.347-0.733-1.99
	c-0.096-0.264-0.11-0.607-0.314-0.891c0.116-0.133,0.266-0.215,0.367-0.366c0.774,0.374,1.062,0.49,1.885,0.942
	c0.223,0.123,0.465,0.34,0.733,0.419c-0.024,1.01,0.398,1.511,1.205,1.676c0.069,0.471,0.14,0.942,0.209,1.414
	C24.33,29.352,23.338,29.829,23.832,30.546z M25.665,25.415c-0.108-0.021-0.102-0.013-0.157-0.053c-0.018,0-0.035,0-0.052,0
	c0.018-0.035,0.035-0.07,0.052-0.104c-0.23-0.121-0.389-0.322-0.628-0.419c-0.523-0.36-1.16,0.136-1.518,0.262
	c-0.186,0.069-0.405-0.161-0.576-0.262c-0.542-0.319-1.278-0.472-1.728-0.89c1.994,0.203,4.844,0.752,6.859,0.837
	C27.393,25.167,26.194,25.034,25.665,25.415z M28.387,24.105c-0.465-0.046-1.162-0.231-1.57-0.209
	c-0.075,0.004-0.084,0.08-0.209,0.052c-0.125-0.027-0.461-0.16-0.577-0.157c-0.075,0.001-0.368,0.047-0.576,0
	c-0.144-0.032-0.56-0.163-0.681-0.157c-0.231,0.011-0.777,0.051-1.152-0.053c-0.652-0.18-1.916-0.374-2.827-0.366
	c-0.048-0.057,0.004-0.005-0.053-0.053c0.073-0.458,0.402-0.26,0.577-0.367c0-0.035,0-0.069,0-0.104
	c0.59-0.374,1.412-0.451,1.937-0.891c0.216,0.096,0.338,0.318,0.524,0.419c0.387,0.21,1.32,0.19,1.623-0.209
	c0.667,0.135,1.231,0.843,1.728,1.204c0.222,0.161,0.461,0.209,0.681,0.366c0.195,0.14,0.303,0.339,0.575,0.419
	C28.387,24.036,28.387,24.071,28.387,24.105z M28.44,24.105c0.09,0.034,0.051,0.01,0.105,0.053
	C28.455,24.125,28.493,24.148,28.44,24.105z M29.854,23.425c-0.249,0.093-0.503,0.197-0.732,0.262
	c-0.44-0.459-1.101-0.724-1.624-1.1c-0.507-0.365-0.986-0.869-1.571-1.152c0.005-0.149,0.021-0.224,0.052-0.313
	c0.89-0.052,1.781-0.105,2.67-0.158c0.244-0.052,0.563,0.054,0.733-0.052c0.141,0.043,0.123,0.028,0.262,0
	c0.088,0.287,0.345,0.639,0.628,0.733C30.133,22.238,29.993,22.832,29.854,23.425z M32.786,16.984c-0.017,0-0.034,0-0.052,0
	c-0.274,0.885-1.089,1.304-1.309,2.199c-1.146-0.146-1.531,0.323-1.833,1.047c-0.624,0-1.18,0.027-1.623,0.105
	c-0.57,0.1-1.21-0.075-1.466,0.052c-0.07,0-0.139,0-0.209,0c0.11-0.3,1.12-0.632,1.519-0.838c1.003-0.514,2.396-1.268,3.456-1.884
	c0.513-0.299,1.003-0.325,1.466-0.733C32.734,16.933,32.838,16.932,32.786,16.984z M32.734,15.361
	c-0.165-0.14-0.788-0.156-1.152-0.262c-0.667-0.194-1.545-0.332-2.251-0.628c-0.086-0.036-0.434,0.019-0.628-0.104
	c-0.046-0.235,0.367-0.62,0.523-0.943c0.496-1.024,1.046-1.732,1.519-2.723c0.22,0.028,0.452,0.056,0.733,0.053
	c0.081,0.606,0.366,1,0.576,1.466c0.235,0.523,0.398,1.201,0.576,1.571c0.182,0.381,0.186,0.784,0.419,1.1
	C33.006,15.12,32.88,15.241,32.734,15.361z"/>
</svg>
